<svg width="25" height="24" viewBox="0 0 25 24" fill="none" xmlns="http://www.w3.org/2000/svg">
<path d="M14.625 9H18.625" stroke="#7D838C" stroke-width="1.75" stroke-linecap="round"/>
<path d="M14.625 12.5H17.625" stroke="#7D838C" stroke-width="1.75" stroke-linecap="round"/>
<path d="M17.625 3H7.625C4.86358 3 2.625 5.23858 2.625 8V16C2.625 18.7614 4.86358 21 7.625 21H17.625C20.3864 21 22.625 18.7614 22.625 16V8C22.625 5.23858 20.3864 3 17.625 3Z" stroke="#7D838C" stroke-width="1.75" stroke-linejoin="round"/>
<path d="M5.625 16C6.83331 13.4189 11.3372 13.2491 12.625 16" stroke="#7D838C" stroke-width="1.75" stroke-linecap="round" stroke-linejoin="round"/>
<path d="M11.125 9C11.125 10.1046 10.2296 11 9.125 11C8.02043 11 7.125 10.1046 7.125 9C7.125 7.89543 8.02043 7 9.125 7C10.2296 7 11.125 7.89543 11.125 9Z" stroke="#7D838C" stroke-width="1.75"/>
</svg>
