<svg width="25" height="24" viewBox="0 0 25 24" fill="none" xmlns="http://www.w3.org/2000/svg">
<path d="M2.875 12C2.875 7.52166 2.875 5.28249 4.26624 3.89124C5.65749 2.5 7.89666 2.5 12.375 2.5C16.8533 2.5 19.0925 2.5 20.4838 3.89124C21.875 5.28249 21.875 7.52166 21.875 12C21.875 16.4783 21.875 18.7175 20.4838 20.1088C19.0925 21.5 16.8533 21.5 12.375 21.5C7.89666 21.5 5.65749 21.5 4.26624 20.1088C2.875 18.7175 2.875 16.4783 2.875 12Z" stroke="#7D838C" stroke-width="1.75"/>
<path d="M11.375 7H17.375" stroke="#7D838C" stroke-width="1.75" stroke-linecap="round"/>
<path d="M7.375 7H8.375" stroke="#7D838C" stroke-width="1.75" stroke-linecap="round"/>
<path d="M7.375 12H8.375" stroke="#7D838C" stroke-width="1.75" stroke-linecap="round"/>
<path d="M7.375 17H8.375" stroke="#7D838C" stroke-width="1.75" stroke-linecap="round"/>
<path d="M11.375 12H17.375" stroke="#7D838C" stroke-width="1.75" stroke-linecap="round"/>
<path d="M11.375 17H17.375" stroke="#7D838C" stroke-width="1.75" stroke-linecap="round"/>
</svg>
