<svg width="25" height="24" viewBox="0 0 25 24" fill="none" xmlns="http://www.w3.org/2000/svg">
<path d="M9.87444 22L9.62381 18.4911C9.48906 16.6046 10.9832 15 12.8744 15C14.7657 15 16.2598 16.6046 16.1251 18.4911L15.8744 22" stroke="#7D838C" stroke-width="1.57"/>
<path d="M3.22651 13.2135C2.87349 10.9162 2.69698 9.76763 3.13129 8.74938C3.56559 7.73112 4.52915 7.03443 6.45626 5.64106L7.89611 4.6C10.2934 2.86667 11.4921 2 12.8751 2C14.2582 2 15.4568 2.86667 17.8541 4.6L19.294 5.64106C21.2211 7.03443 22.1847 7.73112 22.619 8.74938C23.0533 9.76763 22.8768 10.9162 22.5237 13.2135L22.2227 15.1724C21.7223 18.4289 21.472 20.0572 20.3041 21.0286C19.1362 22 17.4288 22 14.0139 22H11.7363C8.32146 22 6.61403 22 5.44612 21.0286C4.27821 20.0572 4.02799 18.4289 3.52755 15.1724L3.22651 13.2135Z" stroke="#7D838C" stroke-width="1.57" stroke-linejoin="round"/>
</svg>
