<svg width="25" height="24" viewBox="0 0 25 24" fill="none" xmlns="http://www.w3.org/2000/svg">
<path d="M20.9156 9.15201C21.7219 10.5418 22.125 11.2366 22.125 12C22.125 12.7634 21.7219 13.4582 20.9156 14.848L18.9919 18.1638C18.1888 19.548 17.7873 20.2402 17.1269 20.6201C16.4666 21 15.6652 21 14.0623 21H10.1877C8.58482 21 7.7834 21 7.12307 20.6201C6.46274 20.2402 6.06119 19.548 5.25811 18.1638L3.33442 14.848C2.52814 13.4582 2.125 12.7634 2.125 12C2.125 11.2366 2.52814 10.5418 3.33442 9.152L5.25811 5.83621C6.06119 4.45196 6.46274 3.75984 7.12307 3.37992C7.7834 3 8.58482 3 10.1877 3H14.0623C15.6652 3 16.4666 3 17.1269 3.37992C17.7873 3.75984 18.1888 4.45197 18.9919 5.83622L20.9156 9.15201Z" fill="#0054B2" stroke="#0054B2" stroke-width="1.75"/>
<path d="M15.625 12C15.625 13.933 14.058 15.5 12.125 15.5C10.192 15.5 8.625 13.933 8.625 12C8.625 10.067 10.192 8.5 12.125 8.5C14.058 8.5 15.625 10.067 15.625 12Z" fill="white" stroke="white" stroke-width="1.75"/>
</svg>
