<svg width="25" height="25" viewBox="0 0 25 25" fill="none" xmlns="http://www.w3.org/2000/svg">
<path d="M4.5 19.3458V8.75427C4.5 5.90026 4.5 4.47326 5.37868 3.58664C6.25736 2.70001 7.67157 2.70001 10.5 2.70001H14.5C17.3284 2.70001 18.7426 2.70001 19.6213 3.58664C20.5 4.47326 20.5 5.90026 20.5 8.75427V19.3458C20.5 20.8575 20.5 21.6133 20.038 21.9108C19.2831 22.3971 18.1161 21.3774 17.5291 21.0073C17.0441 20.7014 16.8017 20.5485 16.5325 20.5397C16.2417 20.5301 15.9949 20.6768 15.4709 21.0073L13.56 22.2124C13.0445 22.5374 12.7868 22.7 12.5 22.7C12.2132 22.7 11.9555 22.5374 11.44 22.2124L9.52913 21.0073C9.04415 20.7014 8.80166 20.5485 8.53253 20.5397C8.24172 20.5301 7.99493 20.6768 7.47087 21.0073C6.88395 21.3774 5.71687 22.3971 4.96195 21.9108C4.5 21.6133 4.5 20.8575 4.5 19.3458Z" stroke="#0054B2" stroke-width="1.75" stroke-linecap="round" stroke-linejoin="round"/>
<path d="M16.5 6.70001H8.5" stroke="#0054B2" stroke-width="1.75" stroke-linecap="round" stroke-linejoin="round"/>
<path d="M10.5 10.7H8.5" stroke="#0054B2" stroke-width="1.75" stroke-linecap="round" stroke-linejoin="round"/>
<path d="M15 10.575C14.1716 10.575 13.5 11.1626 13.5 11.8875C13.5 12.6124 14.1716 13.2 15 13.2C15.8284 13.2 16.5 13.7876 16.5 14.5125C16.5 15.2374 15.8284 15.825 15 15.825M15 10.575C15.6531 10.575 16.2087 10.9402 16.4146 11.45M15 10.575V9.70001M15 15.825C14.3469 15.825 13.7913 15.4598 13.5854 14.95M15 15.825V16.7" stroke="#0054B2" stroke-width="1.75" stroke-linecap="round"/>
</svg>
