<svg width="24" height="25" viewBox="0 0 24 25" fill="none" xmlns="http://www.w3.org/2000/svg">
<path d="M8.85746 13.0061C6.36901 11.1456 4.59564 9.09915 3.62734 7.94867C3.3276 7.59253 3.22938 7.3319 3.17033 6.8728C2.96811 5.3008 2.86701 4.5148 3.32795 4.0074C3.7889 3.5 4.60404 3.5 6.23433 3.5H17.7657C19.396 3.5 20.2111 3.5 20.672 4.0074C21.133 4.5148 21.0319 5.3008 20.8297 6.87281C20.7706 7.33191 20.6724 7.59254 20.3726 7.94867C19.403 9.10062 17.6261 11.1507 15.1326 13.0135C14.907 13.1821 14.7583 13.4567 14.7307 13.7614C14.4837 16.492 14.2559 17.9876 14.1141 18.7442C13.8853 19.9657 12.1532 20.7006 11.226 21.3563C10.6741 21.7466 10.0043 21.282 9.93278 20.6778C9.79643 19.5261 9.53961 17.1864 9.25927 13.7614C9.23409 13.4539 9.08486 13.1761 8.85746 13.0061Z" stroke="#5D646F" stroke-width="1.75" stroke-linecap="round" stroke-linejoin="round"/>
</svg>
