<svg width="81" height="80" viewBox="0 0 81 80" fill="none" xmlns="http://www.w3.org/2000/svg">
<path d="M7.16663 26.6203C7.53176 19.2528 8.62406 14.6594 11.8917 11.3917C15.1593 8.12409 19.7528 7.03179 27.1202 6.66666M73.8333 26.6203C73.4683 19.2528 72.376 14.6594 69.1083 11.3917C65.8406 8.12409 61.2473 7.03179 53.8796 6.66666M53.8796 73.3333C61.2473 72.9683 65.8406 71.876 69.1083 68.6083C72.376 65.3407 73.4683 60.7473 73.8333 53.3797M27.1202 73.3333C19.7528 72.9683 15.1593 71.876 11.8917 68.6083C8.62406 65.3407 7.53176 60.7473 7.16663 53.3797" stroke="#0054B2" stroke-width="4" stroke-linecap="round" stroke-linejoin="round"/>
<path d="M55.5487 29.808C56.6057 31.7263 57.1667 33.8387 57.1667 35.997V45.602C57.1667 49.3837 55.3804 53.109 52.285 55.783C49.1897 58.457 44.8774 60 40.5 60M23.8334 37.5943V45.603C23.8317 49.7977 26.0124 53.923 29.8367 56.6733M48.8334 21.9289C45.0054 20.0197 40.4564 19.5023 36.1867 20.4906C31.9173 21.4788 28.277 23.8918 26.0668 27.1986M46.055 38.2607V35.304C46.0884 33.1822 44.2777 31.2721 41.817 30.7692M34.945 39.5223V44.6017C34.927 45.537 35.255 46.4543 35.8854 47.2313C37.852 49.6567 42.2527 49.934 44.6334 47.742" stroke="#0054B2" stroke-width="4" stroke-linecap="round" stroke-linejoin="round"/>
</svg>
