<svg width="24" height="25" viewBox="0 0 24 25" fill="none" xmlns="http://www.w3.org/2000/svg">
<path d="M12 14.4C13.1046 14.4 14 13.5046 14 12.4C14 11.2955 13.1046 10.4 12 10.4C10.8954 10.4 10 11.2955 10 12.4C10 13.5046 10.8954 14.4 12 14.4Z" stroke="#0054B2" stroke-width="1.75" stroke-linecap="round"/>
<path d="M4 18.401C2.74418 16.7295 2 14.6516 2 12.4C2 6.87717 6.47715 2.40002 12 2.40002C17.5228 2.40002 22 6.87717 22 12.4C22 14.6516 21.2558 16.7295 20 18.401" stroke="#0054B2" stroke-width="1.75" stroke-linecap="round"/>
<path d="M7.52779 16.4C6.57771 15.3385 6 13.9367 6 12.4C6 9.08631 8.68629 6.40002 12 6.40002C15.3137 6.40002 18 9.08631 18 12.4C18 13.9367 17.4223 15.3385 16.4722 16.4" stroke="#0054B2" stroke-width="1.75" stroke-linecap="round"/>
<path d="M12 14.4V19.4" stroke="#0054B2" stroke-width="1.75" stroke-linecap="round"/>
<path d="M13.2623 19.4H10.7377C10.4667 19.4 10.3312 19.4 10.2019 19.4183C9.94003 19.4552 9.69171 19.5474 9.4774 19.6873C9.37156 19.7564 9.27574 19.8423 9.08411 20.014C8.45381 20.5791 8.13866 20.8616 8.05571 21.0884C7.88399 21.5577 8.12031 22.0692 8.61197 22.2923C8.84946 22.4 9.29515 22.4 10.1865 22.4H13.8135C14.7049 22.4 15.1505 22.4 15.388 22.2923C15.8797 22.0692 16.116 21.5577 15.9443 21.0884C15.8613 20.8616 15.5462 20.5791 14.9159 20.014C14.7243 19.8423 14.6284 19.7564 14.5226 19.6873C14.3083 19.5474 14.06 19.4552 13.7981 19.4183C13.6688 19.4 13.5333 19.4 13.2623 19.4Z" stroke="#0054B2" stroke-width="1.75" stroke-linecap="round"/>
</svg>
