<svg width="25" height="25" viewBox="0 0 25 25" fill="none" xmlns="http://www.w3.org/2000/svg">
<path d="M20.6453 13.7C21.4362 12.5662 21.9 11.1872 21.9 9.70001C21.9 5.83402 18.766 2.70001 14.9 2.70001C11.034 2.70001 7.90002 5.83401 7.90002 9.70001C7.90002 10.7736 8.14171 11.7907 8.57365 12.7" stroke="#0054B2" stroke-width="1.75" stroke-linecap="round" stroke-linejoin="round"/>
<path d="M14.9 7.07501C14.0716 7.07501 13.4 7.66261 13.4 8.38751C13.4 9.11241 14.0716 9.70001 14.9 9.70001C15.7284 9.70001 16.4 10.2876 16.4 11.0125C16.4 11.7374 15.7284 12.325 14.9 12.325M14.9 7.07501C15.5531 7.07501 16.1087 7.44021 16.3146 7.95001M14.9 7.07501V6.20001M14.9 12.325C14.2469 12.325 13.6913 11.9598 13.4854 11.45M14.9 12.325V13.2" stroke="#0054B2" stroke-width="1.75" stroke-linecap="round"/>
<path d="M3.90002 14.7H6.29484C6.58899 14.7 6.8791 14.7663 7.14219 14.8936L9.18417 15.8816C9.44726 16.0089 9.73737 16.0751 10.0315 16.0751H11.0741C12.0825 16.0751 12.9 16.8662 12.9 17.842C12.9 17.8814 12.873 17.9161 12.8338 17.9269L10.2929 18.6295C9.83709 18.7555 9.34902 18.7116 8.92502 18.5064L6.74213 17.4503M12.9 17.2L17.4928 15.7889C18.307 15.5352 19.1871 15.836 19.6971 16.5423C20.0659 17.0529 19.9157 17.7842 19.3785 18.0942L11.8629 22.4305C11.3849 22.7063 10.821 22.7736 10.2952 22.6176L3.90002 20.7199" stroke="#0054B2" stroke-width="1.75" stroke-linecap="round" stroke-linejoin="round"/>
</svg>
