<svg width="57" height="56" viewBox="0 0 57 56" fill="none" xmlns="http://www.w3.org/2000/svg">
<rect x="0.5" width="56" height="56" rx="28" fill="#0054B2"/>
<path d="M25.494 18C22.6971 18.064 21.0635 18.3311 19.9473 19.4473C18.8311 20.5635 18.564 22.1971 18.5 24.994M31.506 18C34.3029 18.064 35.9365 18.3311 37.0527 19.4473C38.1689 20.5635 38.4361 22.1971 38.5 24.994M31.506 38C34.3029 37.9361 35.9365 37.6689 37.0527 36.5527C38.1689 35.4365 38.4361 33.8029 38.5 31.006M25.494 38C22.6971 37.9361 21.0635 37.6689 19.9473 36.5527C18.8311 35.4365 18.564 33.8029 18.5 31.006" stroke="#E6EEF7" stroke-width="1.75" stroke-linecap="round" stroke-linejoin="round"/>
<path d="M33.4998 23H33.5088" stroke="#E6EEF7" stroke-width="1.75" stroke-linecap="round" stroke-linejoin="round"/>
<path d="M29.5 22V25C29.5 26.8856 29.5 27.8284 28.9142 28.4142C28.3284 29 27.3856 29 25.5 29H22.5" stroke="#E6EEF7" stroke-width="1.75" stroke-linecap="round"/>
<path d="M22.7929 22.2929C22.5 22.5858 22.5 23.0572 22.5 24C22.5 24.9428 22.5 25.4142 22.7929 25.7071M22.7929 22.2929C23.0858 22 23.5572 22 24.5 22C25.4428 22 25.9142 22 26.2071 22.2929M22.7929 25.7071C23.0858 26 23.5572 26 24.5 26C25.4428 26 25.9142 26 26.2071 25.7071M26.2071 25.7071C26.5 25.4142 26.5 24.9428 26.5 24C26.5 23.0572 26.5 22.5858 26.2071 22.2929" stroke="#E6EEF7" stroke-width="1.75"/>
<path d="M33.5 31C33.9714 31 34.2071 31 34.3536 31.1464C34.5 31.2929 34.5 31.5286 34.5 32V33C34.5 33.4714 34.5 33.7071 34.3536 33.8536C34.2071 34 33.9714 34 33.5 34H31.5C31.0286 34 30.7929 34 30.6464 33.8536C30.5 33.7071 30.5 33.4714 30.5 33V32C30.5 31.5286 30.5 31.2929 30.6464 31.1464C30.7929 31 31.0286 31 31.5 31H33.5Z" stroke="#E6EEF7" stroke-width="1.75"/>
<path d="M22.5 34H27.5" stroke="#E6EEF7" stroke-width="1.75" stroke-linecap="round"/>
<path d="M33.5 26V28" stroke="#E6EEF7" stroke-width="1.75" stroke-linecap="round"/>
</svg>
