<svg width="25" height="25" viewBox="0 0 25 25" fill="none" xmlns="http://www.w3.org/2000/svg">
<path d="M16.1 7.20001C16.0377 5.48753 15.8251 4.4501 15.0988 3.72514C14.0718 2.70001 12.4188 2.70001 9.1129 2.70001C5.80699 2.70001 4.15404 2.70001 3.12702 3.72514C2.10001 4.75026 2.10001 6.40018 2.10001 9.70001V15.7C2.10001 18.9998 2.10001 20.6497 3.12702 21.6749C4.15404 22.7 5.80699 22.7 9.1129 22.7C12.4188 22.7 14.0718 22.7 15.0988 21.6749C15.8251 20.9499 16.0377 19.9125 16.1 18.2" stroke="#0054B2" stroke-width="1.75" stroke-linecap="round"/>
<path d="M8.10001 19.7H10.1" stroke="#0054B2" stroke-width="1.75" stroke-linecap="round" stroke-linejoin="round"/>
<path d="M22.1 11.7V13.7C22.1 14.8046 21.2046 15.7 20.1 15.7H14.1C12.9954 15.7 12.1 14.8046 12.1 13.7V11.7C12.1 10.5954 12.9954 9.70001 14.1 9.70001H20.1C21.2046 9.70001 22.1 10.5954 22.1 11.7Z" stroke="#0054B2" stroke-width="1.75"/>
<path d="M6.10001 2.70001L6.18901 3.23403C6.38189 4.3913 6.47833 4.96994 6.8752 5.32205C7.28919 5.68935 7.87615 5.70001 9.10001 5.70001C10.3239 5.70001 10.9108 5.68935 11.3248 5.32205C11.7217 4.96994 11.8181 4.3913 12.011 3.23403L12.1 2.70001" stroke="#0054B2" stroke-width="1.75" stroke-linejoin="round"/>
</svg>
