<svg width="40" height="41" viewBox="0 0 40 41" fill="none" xmlns="http://www.w3.org/2000/svg">
<rect y="0.399994" width="40" height="40" rx="20" fill="#E6EEF7"/>
<path d="M24 14.9C23.9377 13.1875 23.7251 12.1501 22.9988 11.4251C21.9718 10.4 20.3188 10.4 17.0129 10.4C13.707 10.4 12.054 10.4 11.027 11.4251C10 12.4502 10 14.1002 10 17.4V23.4C10 26.6998 10 28.3497 11.027 29.3749C12.054 30.4 13.707 30.4 17.0129 30.4C20.3188 30.4 21.9718 30.4 22.9988 29.3749C23.7251 28.6499 23.9377 27.6125 24 25.9" stroke="#0054B2" stroke-width="1.75" stroke-linecap="round"/>
<path d="M16 27.4H18" stroke="#0054B2" stroke-width="1.75" stroke-linecap="round" stroke-linejoin="round"/>
<path d="M30 19.4V21.4C30 22.5046 29.1046 23.4 28 23.4H22C20.8954 23.4 20 22.5046 20 21.4V19.4C20 18.2954 20.8954 17.4 22 17.4H28C29.1046 17.4 30 18.2954 30 19.4Z" stroke="#0054B2" stroke-width="1.75"/>
<path d="M14 10.4L14.089 10.934C14.2819 12.0913 14.3783 12.6699 14.7752 13.022C15.1892 13.3893 15.7761 13.4 17 13.4C18.2239 13.4 18.8108 13.3893 19.2248 13.022C19.6217 12.6699 19.7181 12.0913 19.911 10.934L20 10.4" stroke="#0054B2" stroke-width="1.75" stroke-linejoin="round"/>
</svg>
