<svg width="57" height="56" viewBox="0 0 57 56" fill="none" xmlns="http://www.w3.org/2000/svg">
<rect x="0.5" width="56" height="56" rx="28" fill="#E6EEF7"/>
<path d="M21.6429 30C20.9173 28.8082 20.5 27.4118 20.5 25.9189C20.5 21.5454 24.0817 18 28.5 18C32.9183 18 36.5 21.5454 36.5 25.9189C36.5 27.4118 36.0827 28.8082 35.3571 30" stroke="#0054B2" stroke-width="1.75" stroke-linecap="round"/>
<path d="M23.8829 33.0982C23.791 32.8216 23.7451 32.6833 23.7504 32.5713C23.7617 32.3343 23.9111 32.1262 24.1316 32.0405C24.2358 32 24.381 32 24.6716 32H32.3284C32.619 32 32.7642 32 32.8684 32.0405C33.0889 32.1262 33.2383 32.3343 33.2496 32.5713C33.2549 32.6833 33.209 32.8216 33.1171 33.0982C32.9473 33.6094 32.8624 33.8651 32.7315 34.072C32.4572 34.5056 32.0272 34.8167 31.5306 34.9408C31.2935 35 31.025 35 30.4881 35H26.5119C25.9749 35 25.7065 35 25.4694 34.9408C24.9728 34.8167 24.5428 34.5056 24.2685 34.072C24.1375 33.8651 24.0527 33.6094 23.8829 33.0982Z" stroke="#0054B2" stroke-width="1.75"/>
<path d="M31.5 35L31.3707 35.6466C31.2293 36.3537 31.1586 36.7072 31.0001 36.9866C30.7552 37.4185 30.3582 37.7439 29.8866 37.8994C29.5816 38 29.2211 38 28.5 38C27.7789 38 27.4184 38 27.1134 37.8994C26.6418 37.7439 26.2448 37.4185 25.9999 36.9866C25.8414 36.7072 25.7707 36.3537 25.6293 35.6466L25.5 35" stroke="#0054B2" stroke-width="1.75"/>
<path d="M28.5 32V27" stroke="#0054B2" stroke-width="1.75" stroke-linecap="round" stroke-linejoin="round"/>
</svg>
