<svg width="33" height="33" viewBox="0 0 33 33" fill="none" xmlns="http://www.w3.org/2000/svg">
<path d="M17.8333 4.75308C17.2065 4.75 16.5409 4.75 15.8333 4.75C9.86217 4.75 6.87661 4.75 5.02161 6.60499C3.16663 8.45999 3.16663 11.4455 3.16663 17.4167C3.16663 23.3877 3.16663 26.3733 5.02161 28.2284C6.87661 30.0833 9.86217 30.0833 15.8333 30.0833C21.8044 30.0833 24.79 30.0833 26.645 28.2284C28.4296 26.4437 28.4973 23.6127 28.4998 18.0833" stroke="#0054B2" stroke-width="1.75" stroke-linecap="round"/>
<path d="M3.16663 19.5972C3.99199 19.4773 4.82641 19.4181 5.66224 19.4203C9.19816 19.3455 12.6475 20.4472 15.3948 22.5289C17.9426 24.4595 19.7329 27.1165 20.5 30.0833" stroke="#0054B2" stroke-width="1.75" stroke-linejoin="round"/>
<path d="M28.5 23.2783C26.9328 22.4845 25.3117 22.0817 23.6816 22.0835C21.2127 22.0737 18.7687 22.9811 16.5 24.75" stroke="#0054B2" stroke-width="1.75" stroke-linejoin="round"/>
<path d="M23.1666 6.74999C23.822 6.07572 25.5664 3.41666 26.5 3.41666M26.5 3.41666C27.4336 3.41666 29.178 6.07572 29.8333 6.74999M26.5 3.41666V14.0833" stroke="#0054B2" stroke-width="1.75" stroke-linecap="round" stroke-linejoin="round"/>
</svg>
