<svg width="25" height="25" viewBox="0 0 25 25" fill="none" xmlns="http://www.w3.org/2000/svg">
<path d="M19.2349 14.6453L18.5646 10.9968C18.2751 9.42097 18.1303 8.63304 17.557 8.16652C16.9837 7.70001 16.1602 7.70001 14.5132 7.70001H10.0869C8.43985 7.70001 7.61633 7.70001 7.04303 8.16652C6.46973 8.63304 6.32497 9.42097 6.03543 10.9968L5.36511 14.6453C4.76413 17.9162 4.46364 19.5517 5.38894 20.6259C6.31424 21.7 8.0236 21.7 11.4423 21.7H13.1577C16.5765 21.7 18.2858 21.7 19.2111 20.6259C20.1364 19.5517 19.8359 17.9162 19.2349 14.6453Z" stroke="#0054B2" stroke-width="1.75" stroke-linecap="round"/>
<path d="M12.3 11.575C11.4716 11.575 10.8 12.1626 10.8 12.8875C10.8 13.6124 11.4716 14.2 12.3 14.2C13.1284 14.2 13.8 14.7876 13.8 15.5125C13.8 16.2374 13.1284 16.825 12.3 16.825M12.3 11.575C12.9531 11.575 13.5087 11.9402 13.7146 12.45M12.3 11.575V10.7M12.3 16.825C11.6469 16.825 11.0913 16.4598 10.8854 15.95M12.3 16.825V17.7" stroke="#0054B2" stroke-width="1.75" stroke-linecap="round"/>
<path d="M21.3 11.7C21.4568 11.6209 21.5931 11.5212 21.7142 11.3955C22.3 10.7875 22.3 9.80894 22.3 7.85177C22.3 5.89461 22.3 4.91603 21.7142 4.30802C21.1284 3.70001 20.1856 3.70001 18.3 3.70001H6.30005C4.41443 3.70001 3.47162 3.70001 2.88584 4.30802C2.30005 4.91603 2.30005 5.89461 2.30005 7.85177C2.30005 9.80894 2.30005 10.7875 2.88584 11.3955C3.00693 11.5212 3.14327 11.6209 3.30005 11.7" stroke="#0054B2" stroke-width="1.75" stroke-linecap="round"/>
</svg>
